<svg id="レイヤー_1" data-name="レイヤー 1" xmlns="http://www.w3.org/2000/svg" viewBox="0 0 88 48"><defs><style>.cls-1{fill:#fff;}</style></defs><title>10s-back</title><polygon class="cls-1" points="3.27 23.5 27 4.68 27 42.32 3.27 23.5"/><path class="cls-1" d="M38.12,30.67l3.1-.39v-15l-3.16.06V13.6l5.88-1.27v18l3.09.39v1.74H38.12Z"/><path class="cls-1" d="M62.13,24.76a9,9,0,0,1-1.71,5.9,6.35,6.35,0,0,1-9.35,0,8.92,8.92,0,0,1-1.72-5.89V20a9,9,0,0,1,1.71-5.9,6.33,6.33,0,0,1,9.35,0A9,9,0,0,1,62.13,20Zm-2.72-5.34a6.73,6.73,0,0,0-.94-3.92,3.17,3.17,0,0,0-2.75-1.32A3.13,3.13,0,0,0,53,15.49a6.76,6.76,0,0,0-.94,3.92v5.89a6.75,6.75,0,0,0,1,3.94,3.48,3.48,0,0,0,5.47,0,6.86,6.86,0,0,0,.93-3.94Z"/><path class="cls-1" d="M76.87,22.18h-2l-.44-1.79a3.68,3.68,0,0,0-1.25-.75,4.82,4.82,0,0,0-1.7-.28,3.13,3.13,0,0,0-2.15.63,2,2,0,0,0-.7,1.53,1.71,1.71,0,0,0,.62,1.39,6.44,6.44,0,0,0,2.52.91,10.89,10.89,0,0,1,4.21,1.65,3.32,3.32,0,0,1,1.38,2.79,3.86,3.86,0,0,1-1.61,3.21,6.73,6.73,0,0,1-4.2,1.23,10.93,10.93,0,0,1-3-.39A8.11,8.11,0,0,1,66,31.17V27.76h2l.51,2a2.84,2.84,0,0,0,1.28.62,7,7,0,0,0,1.65.19A3.85,3.85,0,0,0,73.78,30a1.81,1.81,0,0,0,.82-1.54A1.85,1.85,0,0,0,73.91,27a6.41,6.41,0,0,0-2.59-1,10.86,10.86,0,0,1-4.1-1.61,3.25,3.25,0,0,1-1.38-2.76,3.9,3.9,0,0,1,1.55-3.1,6.12,6.12,0,0,1,4-1.28,9.81,9.81,0,0,1,3,.44,6.36,6.36,0,0,1,2.25,1.23Z"/></svg>