<svg id="レイヤー_1" data-name="レイヤー 1" xmlns="http://www.w3.org/2000/svg" viewBox="0 0 88 48"><defs><style>.cls-1{fill:#fff;}</style></defs><title>30s-forward</title><polygon class="cls-1" points="84.73 23.5 61 4.68 61 42.32 84.73 23.5"/><path class="cls-1" d="M9.46,21.11h2.37a3.16,3.16,0,0,0,2.56-.9,3.82,3.82,0,0,0,.75-2.52,3.65,3.65,0,0,0-.86-2.62,3.33,3.33,0,0,0-2.52-.9,3.5,3.5,0,0,0-2.55.93,3.3,3.3,0,0,0-1,2.48H5.65l0-.08a4.86,4.86,0,0,1,1.65-3.87A6.34,6.34,0,0,1,11.76,12a6.41,6.41,0,0,1,4.44,1.48,5.38,5.38,0,0,1,1.66,4.23,4.83,4.83,0,0,1-3,4.36A4.42,4.42,0,0,1,17.41,24a5.48,5.48,0,0,1,.75,2.84,5.43,5.43,0,0,1-1.8,4.32,6.74,6.74,0,0,1-4.6,1.57,6.9,6.9,0,0,1-4.55-1.48,4.76,4.76,0,0,1-1.72-4l0-.08H8.12a3.34,3.34,0,0,0,1,2.52,3.69,3.69,0,0,0,2.67.94,3.75,3.75,0,0,0,2.7-.94,3.66,3.66,0,0,0,1-2.77,3.78,3.78,0,0,0-.87-2.75,3.71,3.71,0,0,0-2.75-.88H9.46Z"/><path class="cls-1" d="M34.52,24.76a9,9,0,0,1-1.71,5.9,5.77,5.77,0,0,1-4.68,2,5.78,5.78,0,0,1-4.68-2.06,8.93,8.93,0,0,1-1.72-5.89V20a9,9,0,0,1,1.71-5.9A5.73,5.73,0,0,1,28.11,12,5.79,5.79,0,0,1,32.8,14.1,9,9,0,0,1,34.52,20Zm-2.72-5.34a6.73,6.73,0,0,0-.95-3.92,3.17,3.17,0,0,0-2.75-1.32,3.13,3.13,0,0,0-2.72,1.32,6.76,6.76,0,0,0-.94,3.92v5.89a6.75,6.75,0,0,0,1,3.94,3.15,3.15,0,0,0,2.73,1.33,3.13,3.13,0,0,0,2.74-1.32,6.86,6.86,0,0,0,.93-3.94Z"/><path class="cls-1" d="M49.26,22.18h-2l-.44-1.79a3.68,3.68,0,0,0-1.25-.75,4.82,4.82,0,0,0-1.7-.28,3.13,3.13,0,0,0-2.15.63,2,2,0,0,0-.7,1.53,1.71,1.71,0,0,0,.62,1.39,6.44,6.44,0,0,0,2.52.91,10.89,10.89,0,0,1,4.21,1.65,3.32,3.32,0,0,1,1.38,2.79,3.86,3.86,0,0,1-1.61,3.21,6.73,6.73,0,0,1-4.2,1.23,10.93,10.93,0,0,1-3-.39,8.11,8.11,0,0,1-2.41-1.14V27.76h2l.51,2a2.84,2.84,0,0,0,1.28.62,7,7,0,0,0,1.65.19A3.84,3.84,0,0,0,46.17,30,1.81,1.81,0,0,0,47,28.45,1.85,1.85,0,0,0,46.3,27a6.41,6.41,0,0,0-2.59-1,10.86,10.86,0,0,1-4.1-1.61,3.25,3.25,0,0,1-1.38-2.76,3.89,3.89,0,0,1,1.55-3.1,6.12,6.12,0,0,1,4-1.28,9.81,9.81,0,0,1,3,.44,6.35,6.35,0,0,1,2.25,1.23Z"/></svg>