<svg id="レイヤー_1" data-name="レイヤー 1" xmlns="http://www.w3.org/2000/svg" viewBox="0 0 48 48"><defs><style>.cls-1{fill:#fff;}</style></defs><title>comments</title><path class="cls-1" d="M40.4,6H7.6A4.61,4.61,0,0,0,3,10.6V31.4A4.61,4.61,0,0,0,7.6,36H19v8.75L27.72,36H40.4A4.61,4.61,0,0,0,45,31.4V10.6A4.61,4.61,0,0,0,40.4,6ZM15.5,23.5a2.86,2.86,0,1,1,2.86-2.86A2.86,2.86,0,0,1,15.5,23.5Zm8.65,0A2.86,2.86,0,1,1,27,20.64,2.86,2.86,0,0,1,24.15,23.5Zm8.65,0a2.86,2.86,0,1,1,2.86-2.86A2.86,2.86,0,0,1,32.8,23.5Z"/></svg>