<svg id="レイヤー_1" data-name="レイヤー 1" xmlns="http://www.w3.org/2000/svg" viewBox="0 0 48 48"><defs><style>.cls-1{fill:#fff;}</style></defs><title>settings</title><path class="cls-1" d="M44.48,21.14l-3-.47a15.94,15.94,0,0,0-.81-3.15l2.44-1.87a1.76,1.76,0,0,0,.35-2.22l-.82-1.51a1.73,1.73,0,0,0-2.1-.7l-2.8,1.17a14.84,14.84,0,0,0-2.33-2.34l1.16-2.92a1.71,1.71,0,0,0-.82-2l-1.51-.94a1.62,1.62,0,0,0-2.1.35L30.13,7A19.87,19.87,0,0,0,27,6.2l-.35-3a1.76,1.76,0,0,0-1.75-1.4H23.13a1.63,1.63,0,0,0-1.64,1.4L21,6.2A29.42,29.42,0,0,0,17.88,7L16,4.57a1.77,1.77,0,0,0-2.22-.35l-1.52.94a1.67,1.67,0,0,0-.7,2l1.17,2.92a13.85,13.85,0,0,0-2.33,2.22L7.49,11.22a1.53,1.53,0,0,0-2,.7l-.93,1.51a1.78,1.78,0,0,0,.34,2.22l2.46,1.87a31.73,31.73,0,0,0-.82,3.15l-3,.47a1.55,1.55,0,0,0-1.4,1.63v1.75a1.55,1.55,0,0,0,1.4,1.63l3,.47a31.72,31.72,0,0,0,.82,3.15L4.92,31.64a1.78,1.78,0,0,0-.34,2.22l.93,1.51a1.53,1.53,0,0,0,2,.7L10.41,35a19.5,19.5,0,0,0,2.22,2.22l-1.06,2.92a1.73,1.73,0,0,0,.7,2.1l1.52.82A1.8,1.8,0,0,0,16,42.73l1.86-2.46a15.36,15.36,0,0,0,3.15.82l.47,3a1.74,1.74,0,0,0,1.64,1.52h1.75a1.64,1.64,0,0,0,1.63-1.52l.48-3a15.52,15.52,0,0,0,3.15-.82L32,42.73a1.79,1.79,0,0,0,2.22.35l1.51-.82a1.72,1.72,0,0,0,.7-2.1l-1-2.8A22,22,0,0,0,37.6,35l2.91,1.17a1.94,1.94,0,0,0,2.1-.82l.82-1.51a1.6,1.6,0,0,0-.35-2.1l-2.44-2a12.71,12.71,0,0,0,.81-3.15l3-.35A1.87,1.87,0,0,0,46,24.52V22.77A1.75,1.75,0,0,0,44.48,21.14ZM24.06,32.22a8.58,8.58,0,1,1,8.52-8.52A8.6,8.6,0,0,1,24.06,32.22Z"/></svg>