<svg id="レイヤー_1" data-name="レイヤー 1" xmlns="http://www.w3.org/2000/svg" viewBox="0 0 48 48"><defs><style>.cls-1{fill:#fff;}</style></defs><title>tabs</title><path class="cls-1" d="M37.73,2H11.27A5.27,5.27,0,0,0,6,7.27V40.73A5.27,5.27,0,0,0,11.27,46H37.73A5.27,5.27,0,0,0,43,40.73V7.27A5.27,5.27,0,0,0,37.73,2ZM26.82,39H15a2.11,2.11,0,0,1-2.13-1.71,2,2,0,0,1,2-2.29h11.8a2.11,2.11,0,0,1,2.13,1.71A2,2,0,0,1,26.82,39Zm7.38-9h-19a2.11,2.11,0,0,1-2.13-1.71,2,2,0,0,1,2-2.29h19a2.11,2.11,0,0,1,2.13,1.71A2,2,0,0,1,34.2,30Zm0-9h-19a2.11,2.11,0,0,1-2.13-1.71,2,2,0,0,1,2-2.29h19a2.11,2.11,0,0,1,2.13,1.71A2,2,0,0,1,34.2,21Zm0-9h-19a2.11,2.11,0,0,1-2.13-1.71,2,2,0,0,1,2-2.29h19a2.11,2.11,0,0,1,2.13,1.71A2,2,0,0,1,34.2,12Z"/></svg>